#!OML:ASF Y:\EmotionMaleHayes\Project 1\Capture day 1\Session 1\Male1.ASF
:FULLY-SPECIFIED
:DEGREES
2369
root -28.4479 16.9789 6.25706 353.836 165.037 357.62
lowerback 7.29109 0.376901 -2.5892
upperback 6.04775 0.870318 -0.384297
thorax 2.14335 0.568743 1.0169
lowerneck -23.305 -5.50872 -3.2488
upperneck 26.6478 -8.50206 8.02118
head 13.4091 -2.63227 2.19685
rclavicle 1.22874e-014 -1.3418e-015
rhumerus 34.9915 16.7882 -36.0632
rradius 41.3236
rwrist -3.87437
rhand -7.22884 -30.8942
rfingers 7.12502
rthumb 18.6507 -60.0201
lclavicle 1.22874e-014 -1.3418e-015
lhumerus 36.3476 -16.8176 29.3922
lradius 40.6341
lwrist 6.23078
lhand -18.1155 -26.9145
lfingers 7.12502
lthumb 8.15889 2.90799
rfemur 3.11386 0.392099 24.2792
rtibia 16.4615
rfoot -17.6528 -7.23319
rtoes 37.2722
lfemur 1.49207 7.27288 -8.35916
ltibia 51.329
lfoot -9.0315 7.08476
ltoes -31.7447
2370
root -28.4764 16.9944 6.17658 353.792 163.982 357.284
lowerback 7.257 0.470757 -2.71464
upperback 5.96255 0.974008 -0.449413
thorax 2.06938 0.613014 1.0138
lowerneck -23.3853 -5.51547 -2.88163
upperneck 26.6845 -8.62562 7.92956
head 13.4266 -2.65495 2.07558
rclavicle -2.39784e-015 1.39149e-014
rhumerus 35.3884 17.8001 -34.4334
rradius 42.3014
rwrist -5.86519
rhand -7.86262 -31.7011
rfingers 7.12502
rthumb 18.041 -60.8844
lclavicle -2.39784e-015 1.39149e-014
lhumerus 36.3147 -16.5738 29.2292
lradius 40.7902
lwrist 6.28112
lhand -18.1915 -27.0464
lfingers 7.12502
lthumb 8.08547 2.7789
rfemur 3.58232 1.1516 23.9321
rtibia 15.8837
rfoot -17.2265 -6.82563
rtoes 37.127
lfemur 0.823519 6.33101 -9.23247
ltibia 50.292
lfoot -10.0678 7.68998
ltoes -29.0852
2371
root -28.5061 17.0093 6.099 353.69 162.936 356.814
lowerback 7.24226 0.546178 -2.88449
upperback 5.89718 1.05715 -0.611408
thorax 2.00755 0.64965 0.936766
lowerneck -23.3011 -5.47306 -2.68708
upperneck 26.4269 -8.61115 7.84384
head 13.2862 -2.66035 2.00652
rclavicle -9.86469e-015 1.78906e-015
rhumerus 35.1345 16.3681 -36.7265
rradius 41.4134
rwrist -3.92953
rhand -7.53336 -30.852
rfingers 7.12502
rthumb 18.3578 -60.0057
lclavicle -9.86469e-015 1.78906e-015
lhumerus 36.3778 -16.2805 28.9971
lradius 40.8307
lwrist 6.39812
lhand -18.2383 -27.1006
lfingers 7.12502
lthumb 8.04039 2.7265
rfemur 3.94003 1.45116 23.3698
rtibia 16.1646
rfoot -17.0763 -6.54809
rtoes 33.7127
lfemur 0.114428 5.35525 -10.2605
ltibia 49.3068
lfoot -10.2653 5.86849
ltoes -18.4757
2372
root -28.5364 17.0207 6.02521 353.493 161.924 356.12
lowerback 7.33261 0.635613 -3.38769
upperback 5.80357 1.13643 -0.7185
thorax 1.85417 0.674904 1.10077
lowerneck -23.238 -5.50155 -2.77441
upperneck 26.2779 -8.59835 7.74806
head 13.2082 -2.69399 1.98198
rclavicle -2.41026e-014 -2.98177e-015
rhumerus 35.139 16.2571 -36.8315
rradius 41.5355
rwrist -4.06885
rhand -7.3452 -31.0147
rfingers 7.12502
rthumb 18.5388 -60.1513
lclavicle -2.41026e-014 -2.98177e-015
lhumerus 36.3963 -16.0694 28.8343
lradius 40.8875
lwrist 6.64767
lhand -18.1312 -26.961
lfingers 7.12502
lthumb 8.14367 2.86203
rfemur 4.26595 2.04884 22.5253
rtibia 15.9122
rfoot -16.7588 -6.08193
rtoes 33.3715
lfemur -0.587295 4.42298 -11.5143
ltibia 48.091
lfoot -10.9338 6.34832
ltoes -19.5449
2373
root -28.5688 17.0315 5.9519 353.415 160.862 355.767
lowerback 7.34304 0.707013 -3.58054
upperback 5.74815 1.20975 -0.738657
thorax 1.78562 0.703596 1.18264
lowerneck -23.365 -5.62365 -2.97392
upperneck 26.3509 -8.71069 7.72518
head 13.2797 -2.76616 1.98296
rclavicle 1.19768e-014 7.95139e-015
rhumerus 35.281 16.0656 -37.0087
rradius 41.5413
rwrist -4.16143
rhand -7.40205 -31.1053
rfingers 7.12502
rthumb 18.4841 -60.2471
lclavicle 1.19768e-014 7.95139e-015
lhumerus 36.384 -15.9191 28.483
lradius 41.0752
lwrist 6.90666
lhand -17.876 -26.8422
lfingers 7.12502
lthumb 8.39001 2.97118
rfemur 4.51943 2.68784 22.0833
rtibia 15.5289
rfoot -16.3093 -5.58917
rtoes 33.2565
lfemur -1.29848 3.41389 -12.3375
ltibia 46.7289
lfoot -11.7431 6.9026
ltoes -19.517
2374
root -28.6005 17.0452 5.8779 353.416 159.684 355.783
lowerback 7.24102 0.766386 -3.41698
upperback 5.80121 1.29967 -0.704019
thorax 1.89422 0.74924 1.12427
lowerneck -23.5314 -5.73102 -3.21297
upperneck 26.3613 -8.84818 7.92356
head 13.3526 -2.82157 2.07122
rclavicle 4.39811e-014 7.35503e-015
rhumerus 35.5352 16.0595 -36.8463
rradius 41.8014
rwrist -4.67262
rhand -7.80108 -31.4123
rfingers 7.12502
rthumb 18.1002 -60.5901
lclavicle 4.39811e-014 7.35503e-015
lhumerus 36.3768 -15.6688 28.0679
lradius 41.2527
lwrist 7.22964
lhand -17.9801 -26.8746
lfingers 7.12502
lthumb 8.28952 2.94279
rfemur 4.78511 3.42165 22.1081
rtibia 15.0958
rfoot -15.8693 -5.03677
rtoes 34.0394
lfemur -1.86593 2.4255 -12.6754
ltibia 45.2298
lfoot -12.8678 7.46308
ltoes -18.4347
2375
root -28.6426 17.0625 5.80283 353.322 158.592 355.677
lowerback 7.53105 0.84647 -3.34738
upperback 5.66303 1.37768 -0.647093
thorax 1.58592 0.788895 1.1314
lowerneck -23.4608 -5.8188 -3.47676
upperneck 26.3651 -8.92225 8.06464
head 13.3677 -2.86427 2.15743
rclavicle 4.52981e-014 -6.55989e-015
rhumerus 35.6148 16.4124 -36.3597
rradius 42.1402
rwrist -5.38918
rhand -8.04973 -31.8219
rfingers 7.12502
rthumb 17.861 -61.0217
lclavicle 4.52981e-014 -6.55989e-015
lhumerus 36.3053 -15.5716 28.0984
lradius 41.253
lwrist 7.42116
lhand -18.5546 -27.1313
lfingers 7.12502
lthumb 7.73502 2.70723
rfemur 5.158 4.06176 21.9477
rtibia 14.6686
rfoot -15.5956 -4.58714
rtoes 35.0976
lfemur -2.34732 1.34305 -13.2176
ltibia 43.5943
lfoot -13.8329 8.38072
ltoes -18.9546
2376
root -28.6804 17.0794 5.72721 353.238 157.476 355.571
lowerback 7.59278 0.930337 -3.31282
upperback 5.63914 1.48067 -0.611118
thorax 1.52197 0.839034 1.14089
lowerneck -23.285 -5.87453 -3.49421
upperneck 26.1959 -8.99541 8.06975
head 13.268 -2.91239 2.14694
rclavicle 5.86415e-015 4.37326e-015
rhumerus 35.6913 16.4255 -36.2439
rradius 42.2888
rwrist -5.87665
rhand -7.98377 -32.1356
rfingers 7.12502
rthumb 17.9245 -61.3296
lclavicle 5.86415e-015 4.37326e-015
lhumerus 36.405 -15.1683 28.3665
lradius 41.0369
lwrist 6.9586
lhand -18.7227 -27.4517
lfingers 7.12502
lthumb 7.57279 2.39275
rfemur 5.43835 4.43527 21.7187
rtibia 14.4224
rfoot -15.327 -3.99708
rtoes 35.3481
lfemur -2.7792 0.201394 -13.6914
ltibia 41.8543
lfoot -14.7494 9.19488
ltoes -19.4763
2377
root -28.7146 17.0944 5.65151 353.226 156.339 355.598
lowerback 7.60737 0.999696 -3.15543
upperback 5.6355 1.57415 -0.56251
thorax 1.50734 0.886873 1.0965
lowerneck -23.1951 -5.93077 -3.43216
upperneck 26.1365 -9.07887 7.99037
head 13.2225 -2.96139 2.08919
rclavicle 7.20594e-015 -1.05356e-014
rhumerus 35.7203 16.3897 -36.2046
rradius 42.5034
rwrist -6.42727
rhand -8.01095 -32.2521
rfingers 7.12502
rthumb 17.8983 -61.4485
lclavicle 7.20594e-015 -1.05356e-014
lhumerus 36.4396 -14.8184 28.4134
lradius 40.9975
lwrist 6.63481
lhand -18.3599 -27.4478
lfingers 7.12502
lthumb 7.92296 2.38373
rfemur 5.76099 5.05641 21.7384
rtibia 13.9875
rfoot -15.139 -3.46881
rtoes 35.9645
lfemur -3.12299 -1.26739 -13.9488
ltibia 40.0447
lfoot -16.0469 9.18771
ltoes -14.9756
2378
root -28.7473 17.1064 5.57487 353.23 155.184 355.521
lowerback 7.59968 1.05558 -3.01055
upperback 5.59643 1.64694 -0.597226
thorax 1.47146 0.924905 0.97451
lowerneck -23.2065 -5.99616 -3.54321
upperneck 26.2699 -9.1686 8.08611
head 13.2989 -2.9915 2.13065
rclavicle 2.7482e-014 -1.27222e-014
rhumerus 35.8718 16.4067 -36.2487
rradius 42.5852
rwrist -6.77585
rhand -8.11449 -32.2154
rfingers 7.12502
rthumb 17.7987 -61.4208
lclavicle 2.7482e-014 -1.27222e-014
lhumerus 36.422 -14.7819 28.071
lradius 41.2062
lwrist 7.04197
lhand -18.5291 -27.3304
lfingers 7.12502
lthumb 7.75964 2.5072
rfemur 6.04638 5.58704 21.7324
rtibia 13.7979
rfoot -15.1239 -3.71099
rtoes 32.6252
lfemur -3.42273 -2.87071 -14.3067
ltibia 38.1064
lfoot -16.9555 8.95293
ltoes -10.9896
2379
root -28.782 17.1182 5.49626 353.292 154.028 355.435
lowerback 7.46016 1.09295 -2.77443
upperback 5.58279 1.70737 -0.709646
thorax 1.53999 0.959541 0.726159
lowerneck -23.2009 -6.06646 -3.67501
upperneck 26.3012 -9.29651 8.32704
head 13.3444 -3.02402 2.22396
rclavicle -6.81831e-014 2.54444e-014
rhumerus 36.0307 16.2827 -36.5534
rradius 42.5533
rwrist -6.72304
rhand -8.17623 -32.2294
rfingers 7.12502
rthumb 17.7393 -61.4403
lclavicle -6.81831e-014 2.54444e-014
lhumerus 36.563 -14.7744 27.6608
lradius 41.2617
lwrist 7.39647
lhand -18.8559 -27.3061
lfingers 7.12502
lthumb 7.44429 2.54295
rfemur 6.26287 6.34593 21.7239
rtibia 13.5689
rfoot -15.0081 -3.85376
rtoes 31.6146
lfemur -3.76167 -4.41815 -14.7873
ltibia 35.9814
lfoot -16.6831 9.8026
ltoes -17.2103
2380
root -28.8188 17.1342 5.41632 353.227 152.904 355.303
lowerback 7.5611 1.15413 -2.77848
upperback 5.52306 1.77396 -0.685236
thorax 1.41901 0.990342 0.745572
lowerneck -23.213 -6.15055 -3.62678
upperneck 26.3559 -9.39941 8.16821
head 13.3633 -3.08725 2.1335
rclavicle 2.06239e-014 -7.95139e-015
rhumerus 36.093 16.3082 -36.5368
rradius 42.59
rwrist -6.76389
rhand -8.16755 -32.1189
rfingers 7.12502
rthumb 17.7476 -61.329
lclavicle 2.06239e-014 -7.95139e-015
lhumerus 36.5658 -14.7584 27.5516
lradius 41.2408
lwrist 7.52782
lhand -18.652 -27.3186
lfingers 7.12502
lthumb 7.64104 2.52337
rfemur 6.49246 6.77186 21.4829
rtibia 13.3323
rfoot -14.7028 -3.39289
rtoes 31.6162
lfemur -3.946 -6.00909 -15.3215
ltibia 33.7896
lfoot -16.1596 10.583
ltoes -24.5714
2381
root -28.853 17.1502 5.33732 352.958 151.769 355.035
lowerback 7.51611 1.15596 -2.84486
upperback 5.6807 1.79181 -0.773953
thorax 1.60892 1.00101 0.694327
lowerneck -23.2166 -6.14498 -3.39138
upperneck 26.2788 -9.42859 7.97811
head 13.3081 -3.11129 2.01128
rclavicle 2.6339e-014 1.66979e-014
rhumerus 36.362 16.1488 -36.7539
rradius 42.542
rwrist -6.65571
rhand -8.03653 -32.0478
rfingers 7.12502
rthumb 17.8737 -61.2464
lclavicle 2.6339e-014 1.66979e-014
lhumerus 36.5925 -14.4083 27.3555
lradius 41.2094
lwrist 7.54295
lhand -18.4087 -27.3462
lfingers 7.12502
lthumb 7.87589 2.48709
rfemur 6.86858 7.12393 21.1254
rtibia 13.1238
rfoot -14.5362 -2.99246
rtoes 29.9768
lfemur -3.89801 -7.54414 -15.8365
ltibia 31.5197
lfoot -16.1168 10.0464
ltoes -26.2506
2382
root -28.885 17.163 5.26265 352.816 150.554 354.964
lowerback 7.49961 1.17114 -2.8597
upperback 5.76705 1.81655 -0.740656
thorax 1.70581 1.01173 0.737361
lowerneck -23.0032 -6.09201 -3.43437
upperneck 26.1307 -9.34378 8.01457
head 13.2019 -3.08952 2.0494
rclavicle 4.79568e-014 -1.66979e-014
rhumerus 36.6206 16.1015 -37.014
rradius 42.4952
rwrist -6.41776
rhand -8.06485 -32.0325
rfingers 7.12502
rthumb 17.8464 -61.2336
lclavicle 4.79568e-014 -1.66979e-014
lhumerus 36.5358 -14.1297 27.3864
lradius 41.0864
lwrist 7.41412
lhand -18.5029 -27.1353
lfingers 7.12502
lthumb 7.785 2.70136
rfemur 7.15803 7.73045 21.1003
rtibia 12.9646
rfoot -14.4992 -2.82374
rtoes 27.9313
lfemur -3.83378 -9.2132 -16.0463
ltibia 29.1625
lfoot -16.172 8.72426
ltoes -24.5229
